HIERARCHY
ROOT Hips
{
	OFFSET 0.717293 88.513641 3.606412
	CHANNELS 6 Xposition Yposition Zposition Zrotation Yrotation Xrotation 
	JOINT Spine
	{
		OFFSET -0.000000 8.814246 -2.080107
		CHANNELS 3 Zrotation Yrotation Xrotation
		JOINT Spine1
		{
			OFFSET -0.000000 8.844141 -0.000000
			CHANNELS 3 Zrotation Yrotation Xrotation
			JOINT Spine2
			{
				OFFSET 0.000000 11.682268 0.000000
				CHANNELS 3 Zrotation Yrotation Xrotation
				JOINT Spine3
				{
					OFFSET 0.000000 11.746700 -0.000000
					CHANNELS 3 Zrotation Yrotation Xrotation
					JOINT Neck
					{
						OFFSET 0.000000 17.658264 0.000000
						CHANNELS 3 Zrotation Yrotation Xrotation
						JOINT Neck1
						{
							OFFSET -0.000000 5.101515 -0.000000
							CHANNELS 3 Zrotation Yrotation Xrotation
							JOINT Head
							{
								OFFSET -0.000000 5.101515 -0.000000
								CHANNELS 3 Zrotation Yrotation Xrotation
								JOINT HeadEnd
								{
									OFFSET -0.000000 11.655085 -0.000000
									CHANNELS 3 Zrotation Yrotation Xrotation
									End Site
									{
										OFFSET 0.000000 0.000000 0.000000
									}
								}
							}
						}
					}
					JOINT RightShoulder
					{
						OFFSET -2.625389 11.175210 -0.000000
						CHANNELS 3 Zrotation Yrotation Xrotation
						JOINT RightArm
						{
							OFFSET 0.000000 10.434715 0.000000
							CHANNELS 3 Zrotation Yrotation Xrotation
							JOINT RightForeArm
							{
								OFFSET 0.000000 29.628420 0.000000
								CHANNELS 3 Zrotation Yrotation Xrotation
								JOINT RightHand
								{
									OFFSET 0.000000 22.857611 -0.000000
									CHANNELS 3 Zrotation Yrotation Xrotation
									JOINT RightHandThumb1
									{
										OFFSET -2.867323 3.959563 2.944291
										CHANNELS 3 Zrotation Yrotation Xrotation
										JOINT RightHandThumb2
										{
											OFFSET 0.000000 3.350399 -0.000000
											CHANNELS 3 Zrotation Yrotation Xrotation
											JOINT RightHandThumb3
											{
												OFFSET 0.000000 3.756509 -0.000000
												CHANNELS 3 Zrotation Yrotation Xrotation
												JOINT RightHandThumb4
												{
													OFFSET -0.000000 3.147345 -0.000000
													CHANNELS 3 Zrotation Yrotation Xrotation
													End Site
													{
														OFFSET 0.000000 0.000000 0.000000
													}
												}
											}
										}
									}
									JOINT RightHandIndex1
									{
										OFFSET -0.086752 10.030893 2.345280
										CHANNELS 3 Zrotation Yrotation Xrotation
										JOINT RightHandIndex2
										{
											OFFSET -0.000000 4.061090 -0.000000
											CHANNELS 3 Zrotation Yrotation Xrotation
											JOINT RightHandIndex3
											{
												OFFSET -0.000000 3.248873 0.000000
												CHANNELS 3 Zrotation Yrotation Xrotation
												JOINT RightHandIndex4
												{
													OFFSET -0.000000 2.639709 0.000000
													CHANNELS 3 Zrotation Yrotation Xrotation
													End Site
													{
														OFFSET 0.000000 0.000000 0.000000
													}
												}
											}
										}
									}
									JOINT RightHandMiddle1
									{
										OFFSET 0.104102 9.502952 0.006768
										CHANNELS 3 Zrotation Yrotation Xrotation
										JOINT RightHandMiddle2
										{
											OFFSET 0.000000 4.568727 -0.000000
											CHANNELS 3 Zrotation Yrotation Xrotation
											JOINT RightHandMiddle3
											{
												OFFSET 0.000000 3.654981 -0.000000
												CHANNELS 3 Zrotation Yrotation Xrotation
												JOINT RightHandMiddle4
												{
													OFFSET 0.000000 2.741236 0.000000
													CHANNELS 3 Zrotation Yrotation Xrotation
													End Site
													{
														OFFSET 0.000000 0.000000 0.000000
													}
												}
											}
										}
									}
									JOINT RightHandRing1
									{
										OFFSET 0.086752 8.921708 -2.267442
										CHANNELS 3 Zrotation Yrotation Xrotation
										JOINT RightHandRing2
										{
											OFFSET -0.000000 4.061090 -0.000000
											CHANNELS 3 Zrotation Yrotation Xrotation
											JOINT RightHandRing3
											{
												OFFSET -0.000000 3.654981 0.000000
												CHANNELS 3 Zrotation Yrotation Xrotation
												JOINT RightHandRing4
												{
													OFFSET -0.000000 2.741236 0.000000
													CHANNELS 3 Zrotation Yrotation Xrotation
													End Site
													{
														OFFSET 0.000000 0.000000 0.000000
													}
												}
											}
										}
									}
									JOINT RightHandPinky1
									{
										OFFSET -0.173504 7.976997 -4.467199
										CHANNELS 3 Zrotation Yrotation Xrotation
										JOINT RightHandPinky2
										{
											OFFSET -0.000000 3.350399 -0.000000
											CHANNELS 3 Zrotation Yrotation Xrotation
											JOINT RightHandPinky3
											{
												OFFSET -0.000000 2.842763 0.000000
												CHANNELS 3 Zrotation Yrotation Xrotation
												JOINT RightHandPinky4
												{
													OFFSET 0.000000 2.639709 -0.000000
													CHANNELS 3 Zrotation Yrotation Xrotation
													End Site
													{
														OFFSET 0.000000 0.000000 0.000000
													}
												}
											}
										}
									}
									JOINT RightForeArmEnd
									{
										OFFSET 0.000000 0.000000 0.000000
										CHANNELS 3 Zrotation Yrotation Xrotation
										End Site
										{
											OFFSET 0.000000 0.000000 0.000000
										}
									}
								}
								JOINT RightArmEnd
								{
									OFFSET 0.000000 0.000000 0.000000
									CHANNELS 3 Zrotation Yrotation Xrotation
									End Site
									{
										OFFSET 0.000000 0.000000 0.000000
									}
								}
							}
						}
					}
					JOINT LeftShoulder
					{
						OFFSET 2.625389 11.175210 -0.000000
						CHANNELS 3 Zrotation Yrotation Xrotation
						JOINT LeftArm
						{
							OFFSET 0.000000 10.813635 0.000000
							CHANNELS 3 Zrotation Yrotation Xrotation
							JOINT LeftForeArm
							{
								OFFSET -0.000000 28.724781 -0.000000
								CHANNELS 3 Zrotation Yrotation Xrotation
								JOINT LeftHand
								{
									OFFSET 0.644384 25.716167 -0.328871
									CHANNELS 3 Zrotation Yrotation Xrotation
									JOINT LeftHandThumb1
									{
										OFFSET 2.867323 3.959563 2.944291
										CHANNELS 3 Zrotation Yrotation Xrotation
										JOINT LeftHandThumb2
										{
											OFFSET 0.000000 3.350399 0.000000
											CHANNELS 3 Zrotation Yrotation Xrotation
											JOINT LeftHandThumb3
											{
												OFFSET 0.000000 3.756509 0.000000
												CHANNELS 3 Zrotation Yrotation Xrotation
												JOINT LeftHandThumb4
												{
													OFFSET -0.000000 3.100000 0.000000
													CHANNELS 3 Zrotation Yrotation Xrotation
													End Site
													{
														OFFSET 0.000000 0.000000 0.000000
													}
												}
											}
										}
									}
									JOINT LeftHandIndex1
									{
										OFFSET 0.086752 10.030893 2.345280
										CHANNELS 3 Zrotation Yrotation Xrotation
										JOINT LeftHandIndex2
										{
											OFFSET -0.000000 4.061090 -0.000000
											CHANNELS 3 Zrotation Yrotation Xrotation
											JOINT LeftHandIndex3
											{
												OFFSET -0.000000 3.248873 -0.000000
												CHANNELS 3 Zrotation Yrotation Xrotation
												JOINT LeftHandIndex4
												{
													OFFSET -0.000000 2.639709 -0.000000
													CHANNELS 3 Zrotation Yrotation Xrotation
													End Site
													{
														OFFSET 0.000000 0.000000 0.000000
													}
												}
											}
										}
									}
									JOINT LeftHandMiddle1
									{
										OFFSET -0.104102 9.502952 0.006768
										CHANNELS 3 Zrotation Yrotation Xrotation
										JOINT LeftHandMiddle2
										{
											OFFSET 0.000000 4.568727 -0.000000
											CHANNELS 3 Zrotation Yrotation Xrotation
											JOINT LeftHandMiddle3
											{
												OFFSET 0.000000 3.654981 0.000000
												CHANNELS 3 Zrotation Yrotation Xrotation
												JOINT LeftHandMiddle4
												{
													OFFSET 0.000000 2.741236 0.000000
													CHANNELS 3 Zrotation Yrotation Xrotation
													End Site
													{
														OFFSET 0.000000 0.000000 0.000000
													}
												}
											}
										}
									}
									JOINT LeftHandRing1
									{
										OFFSET -0.086752 8.921708 -2.267442
										CHANNELS 3 Zrotation Yrotation Xrotation
										JOINT LeftHandRing2
										{
											OFFSET -0.000000 4.061090 -0.000000
											CHANNELS 3 Zrotation Yrotation Xrotation
											JOINT LeftHandRing3
											{
												OFFSET 0.000000 3.654981 0.000000
												CHANNELS 3 Zrotation Yrotation Xrotation
												JOINT LeftHandRing4
												{
													OFFSET -0.000000 2.741236 -0.000000
													CHANNELS 3 Zrotation Yrotation Xrotation
													End Site
													{
														OFFSET 0.000000 0.000000 0.000000
													}
												}
											}
										}
									}
									JOINT LeftHandPinky1
									{
										OFFSET 0.173504 7.976997 -4.467199
										CHANNELS 3 Zrotation Yrotation Xrotation
										JOINT LeftHandPinky2
										{
											OFFSET 0.000000 3.350399 -0.000000
											CHANNELS 3 Zrotation Yrotation Xrotation
											JOINT LeftHandPinky3
											{
												OFFSET 0.000000 2.842763 0.000000
												CHANNELS 3 Zrotation Yrotation Xrotation
												JOINT LeftHandPinky4
												{
													OFFSET -0.000000 2.639709 -0.000000
													CHANNELS 3 Zrotation Yrotation Xrotation
													End Site
													{
														OFFSET 0.000000 0.000000 0.000000
													}
												}
											}
										}
									}
									JOINT LeftForeArmEnd
									{
										OFFSET 0.000000 0.000000 0.000000
										CHANNELS 3 Zrotation Yrotation Xrotation
										End Site
										{
											OFFSET 0.000000 0.000000 0.000000
										}
									}
								}
								JOINT LeftArmEnd
								{
									OFFSET 0.000000 0.000000 0.000000
									CHANNELS 3 Zrotation Yrotation Xrotation
									End Site
									{
										OFFSET 0.000000 0.000000 0.000000
									}
								}
							}
						}
					}
				}
			}
		}
	}
	JOINT RightUpLeg
	{
		OFFSET -11.289943 0.000000 -0.000000
		CHANNELS 3 Zrotation Yrotation Xrotation
		JOINT RightLeg
		{
			OFFSET 0.000000 -38.200325 -0.000000
			CHANNELS 3 Zrotation Yrotation Xrotation
			JOINT RightFoot
			{
				OFFSET -0.000000 -39.900856 -0.000000
				CHANNELS 3 Zrotation Yrotation Xrotation
				JOINT RightToeBase
				{
					OFFSET -0.000000 0.000000 15.261641
					CHANNELS 3 Zrotation Yrotation Xrotation
					JOINT RightToeBaseEnd
					{
						OFFSET 0.000000 0.000000 7.370709
						CHANNELS 3 Zrotation Yrotation Xrotation
						End Site
						{
							OFFSET 0.000000 0.000000 0.000000
						}
					}
				}
				JOINT RightLegEnd
				{
					OFFSET 0.000000 0.000000 0.000000
					CHANNELS 3 Zrotation Yrotation Xrotation
					End Site
					{
						OFFSET 0.000000 0.000000 0.000000
					}
				}
			}
			JOINT RightUpLegEnd
			{
				OFFSET 0.000000 0.000000 0.000000
				CHANNELS 3 Zrotation Yrotation Xrotation
				End Site
				{
					OFFSET 0.000000 0.000000 0.000000
				}
			}
		}
	}
	JOINT LeftUpLeg
	{
		OFFSET 11.315661 -0.000000 -0.000000
		CHANNELS 3 Zrotation Yrotation Xrotation
		JOINT LeftLeg
		{
			OFFSET 0.000000 -38.200325 0.000000
			CHANNELS 3 Zrotation Yrotation Xrotation
			JOINT LeftFoot
			{
				OFFSET 0.000000 -39.900856 0.000000
				CHANNELS 3 Zrotation Yrotation Xrotation
				JOINT LeftToeBase
				{
					OFFSET 0.000000 -0.000000 15.261641
					CHANNELS 3 Zrotation Yrotation Xrotation
					JOINT LeftToeBaseEnd
					{
						OFFSET -0.000000 0.000000 7.539996
						CHANNELS 3 Zrotation Yrotation Xrotation
						End Site
						{
							OFFSET 0.000000 0.000000 0.000000
						}
					}
				}
				JOINT LeftLegEnd
				{
					OFFSET 0.000000 0.000000 0.000000
					CHANNELS 3 Zrotation Yrotation Xrotation
					End Site
					{
						OFFSET 0.000000 0.000000 0.000000
					}
				}
			}
			JOINT LeftUpLegEnd
			{
				OFFSET 0.000000 0.000000 0.000000
				CHANNELS 3 Zrotation Yrotation Xrotation
				End Site
				{
					OFFSET 0.000000 0.000000 0.000000
				}
			}
		}
	}
}
MOTION
Frames: 5
Frame Time: 0.016667
0.717293 88.513641 3.606412 -0.807625 -0.145498 -10.211953 2.974575 -0.200603 8.045942 0.343280 -0.161376 3.810282 0.356144 -1.985393 3.162312 -0.570617 -0.651933 1.640799 0.102534 -1.376300 4.726995 -0.786954 -0.955029 -2.695320 -0.607556 -0.996725 -19.207796 0.000000 0.000000 0.000000 90.633385 -0.099941 10.407545 65.336464 -33.843838 4.224475 -0.450088 10.791811 20.358622 7.570276 13.503039 -6.307324 10.937046 -1.865515 39.738762 0.000000 0.000000 -26.639997 0.000000 0.000000 -18.499998 0.000000 0.000000 0.000000 13.612741 0.000000 -9.950699 9.528920 0.000000 0.000000 9.528920 0.000000 0.000000 0.000000 0.000000 0.000000 12.607718 -0.000000 -10.819226 8.825400 0.000000 0.000000 8.825400 0.000000 0.000000 0.000000 0.000000 0.000000 14.150433 -0.000000 -9.929859 9.905301 0.000000 0.000000 9.905301 0.000000 0.000000 0.000000 0.000000 0.000000 14.986264 0.000000 -10.561732 10.490384 0.000000 0.000000 10.490384 0.000000 0.000000 0.000000 0.000000 0.000000 0.000000 0.000000 0.000000 0.000000 0.000000 0.000000 -87.418159 -0.270548 6.233880 -75.998817 26.272921 -6.204399 -0.339548 -5.544445 38.662582 0.678041 -17.794977 -13.609647 -10.637670 1.840800 39.870987 0.000000 0.000000 -25.919998 0.000000 0.000000 -18.000004 0.000000 0.000000 0.000000 -12.784686 -0.000000 -9.414296 -8.949280 0.000000 0.000000 -8.949280 0.000000 0.000000 0.000000 0.000000 0.000000 -12.048728 -0.000000 -10.392732 -8.434110 0.000000 0.000000 -8.434110 0.000000 0.000000 0.000000 0.000000 0.000000 -13.654737 -0.000000 -11.575627 -9.558316 0.000000 0.000000 -9.558316 0.000000 0.000000 0.000000 0.000000 0.000000 -14.250447 -0.000000 -12.885098 -9.975311 0.000000 0.000000 -9.975311 0.000000 0.000000 0.000000 0.000000 0.000000 0.000000 0.000000 0.000000 0.000000 0.000000 0.000000 1.136141 -14.518364 12.126021 -0.031131 -0.345450 4.775295 -3.873879 -13.260001 19.727701 -0.519588 0.644877 -18.908152 0.000000 0.000000 0.000000 0.000000 0.000000 0.000000 0.000000 0.000000 0.000000 8.610489 -1.127510 2.905101 0.263057 0.928557 15.818079 -1.732145 6.252617 17.146845 1.232856 -0.489963 -24.107113 0.000000 0.000000 0.000000 0.000000 0.000000 0.000000 0.000000 0.000000 0.000000 
0.677959 88.456169 3.405159 -1.349668 -0.270802 -9.953589 3.565674 -0.720544 7.062002 1.226576 -0.502105 4.726932 -0.201468 -1.622175 2.687343 -1.276384 -0.550401 3.553545 -0.799593 -0.743672 4.448402 -0.853359 -1.177626 -3.594860 -0.661567 -0.872999 -18.432140 0.000000 0.000000 0.000000 90.530960 -0.172373 9.722120 64.330963 -31.688494 6.975745 -0.103127 13.282914 20.084965 8.563416 12.378659 -5.247717 10.752838 -1.865370 39.840858 0.000001 0.000029 -26.099312 0.000007 0.000041 -18.009134 0.000006 -0.000003 -0.000025 13.002831 0.077042 -10.341097 9.057348 -0.026343 -0.027278 9.108415 -0.004823 -0.030565 -0.000032 0.000045 -0.000037 12.644267 0.041461 -11.225949 8.510353 -0.016815 -0.019021 8.623797 0.002317 -0.017538 0.000030 0.000019 0.000006 14.952936 -0.071470 -10.591289 9.737197 0.025252 0.081999 9.704862 -0.010844 0.058994 -0.000016 0.000494 0.000019 15.786036 -0.154475 -11.444587 10.454833 0.003223 0.436580 10.248018 -0.059868 0.355914 0.000337 -0.000004 0.000012 0.000000 0.000000 0.000000 0.000000 0.000000 0.000000 -87.481827 -0.215983 6.824396 -74.565971 25.501673 -5.779171 -0.610417 -9.341136 40.003593 0.745531 -14.878406 -14.622183 -10.327149 1.801289 39.998447 -0.000009 0.000028 -25.248413 -0.000050 -0.000026 -17.558353 -0.000657 -0.000009 0.000723 -13.054032 0.145676 -9.280437 -9.055326 -0.021654 0.082254 -9.276081 0.009979 0.068849 0.000008 0.000127 -0.000011 -12.321245 0.058210 -10.243285 -8.726742 -0.021157 0.035668 -8.472686 0.004311 0.035962 -0.000357 -0.000029 -0.000088 -13.785293 -0.037476 -10.858335 -9.724731 0.035836 -0.109086 -9.586490 -0.002224 -0.066113 0.000236 0.000009 0.000003 -13.751114 -0.090461 -11.826178 -10.058050 0.049285 -0.246963 -10.049277 -0.030815 -0.234634 0.000089 -0.000016 -0.000029 0.000000 0.000000 0.000000 0.000000 0.000000 0.000000 1.814700 -14.950286 11.280325 0.003795 -0.420746 5.630440 -5.137662 -13.427953 19.222816 -0.769308 0.537479 -18.771471 0.000000 0.000000 0.000000 0.000000 0.000000 0.000000 0.000000 0.000000 0.000000 8.704196 -0.621534 3.367132 0.313091 0.934739 16.264200 -3.291664 5.423602 20.247147 0.742624 -0.407981 -22.833523 0.000000 0.000000 0.000000 0.000000 0.000000 0.000000 0.000000 0.000000 0.000000 
0.609303 88.438309 3.356896 -1.291571 -0.070672 -10.027047 3.534581 -0.713895 7.032820 1.255878 -0.509636 4.794774 -0.312476 -1.582322 2.686566 -1.233718 -0.552231 3.664359 -0.679841 -0.876066 4.612008 -0.841772 -1.274975 -3.445967 -0.653610 -0.871543 -18.478138 0.000000 0.000000 0.000000 90.622589 -0.174364 9.807148 64.320297 -31.256403 6.904719 -0.139004 13.499556 20.646799 8.306392 12.321466 -5.501928 10.699733 -1.858425 39.871418 -0.000007 0.000053 -25.947634 0.000018 0.000034 -17.907993 0.000018 0.000005 -0.000042 12.840102 0.077543 -10.194652 8.968794 -0.029095 -0.021727 8.988764 -0.006375 -0.022715 -0.000010 0.000059 -0.000028 12.429168 0.041523 -11.086881 8.429446 -0.019014 -0.013651 8.541791 0.000852 -0.013367 0.000025 0.000008 -0.000011 14.682143 -0.073226 -10.483016 9.622743 0.028016 0.066215 9.606690 -0.008165 0.046563 -0.000024 0.000599 0.000001 15.559566 -0.158087 -11.359107 10.386146 0.014802 0.387434 10.182462 -0.050847 0.319832 0.000317 0.000007 0.000018 0.000000 0.000000 0.000000 0.000000 0.000000 0.000000 -87.444557 -0.245058 6.880373 -74.718498 25.264353 -5.852695 -0.569101 -9.404400 40.523586 0.789953 -14.902627 -14.600578 -10.269744 1.787853 40.024757 0.000010 0.000030 -25.123049 -0.000050 -0.000012 -17.473749 -0.000762 0.000003 0.000646 -12.737830 0.150401 -9.203156 -8.962814 -0.023773 0.067586 -9.167731 0.007625 0.050270 0.000020 0.000104 -0.000003 -12.020971 0.059928 -10.229120 -8.690674 -0.022269 0.026669 -8.447313 0.003670 0.030299 -0.000402 -0.000022 -0.000099 -13.633878 -0.035804 -10.921359 -9.766290 0.036667 -0.102289 -9.646358 -0.001436 -0.059197 0.000359 0.000015 0.000009 -13.754824 -0.086990 -11.952416 -10.191582 0.049873 -0.231754 -10.200438 -0.031154 -0.220488 0.000025 0.000007 -0.000051 0.000000 0.000000 0.000000 0.000000 0.000000 0.000000 1.743454 -15.157969 11.336466 0.005868 -0.406678 5.503921 -5.237252 -13.412009 19.275673 -0.755698 0.519767 -18.783895 0.000000 0.000000 0.000000 0.000000 0.000000 0.000000 0.000000 0.000000 0.000000 8.738726 -0.713836 3.230061 0.315624 0.947003 16.313551 -3.309345 5.149519 20.310654 0.743988 -0.428010 -22.897854 0.000000 0.000000 0.000000 0.000000 0.000000 0.000000 0.000000 0.000000 0.000000 
0.557319 88.423058 3.318219 -1.221786 0.110004 -10.094355 3.503798 -0.701578 7.027346 1.315577 -0.521165 4.821647 -0.447699 -1.479878 2.696992 -1.222874 -0.534576 3.734447 -0.629388 -0.974387 4.726068 -0.834055 -1.375232 -3.342001 -0.629240 -0.875181 -18.563990 0.000000 0.000000 0.000000 90.666588 -0.143806 9.898915 64.596344 -30.653511 6.650126 -0.165369 13.864297 21.629181 7.712802 12.151457 -5.584085 10.638681 -1.848341 39.908485 -0.000006 0.000052 -25.789480 0.000016 0.000035 -17.796701 0.000018 0.000004 -0.000042 12.610243 0.077804 -10.025323 8.882515 -0.028500 -0.022351 8.867286 -0.004640 -0.021176 -0.000010 0.000058 -0.000029 12.144129 0.041418 -10.952806 8.352732 -0.019668 -0.011543 8.468596 0.000520 -0.012269 0.000025 0.000013 -0.000010 14.337753 -0.074041 -10.442598 9.510374 0.028016 0.055899 9.508585 -0.007392 0.038544 -0.000022 0.000751 0.000001 15.197743 -0.158555 -11.377749 10.305103 0.017349 0.357862 10.112551 -0.049905 0.295869 0.000278 0.000007 0.000014 0.000000 0.000000 0.000000 0.000000 0.000000 0.000000 -87.371788 -0.251329 6.916658 -74.879417 24.966131 -5.917558 -0.527924 -9.572182 41.188606 1.053273 -14.937595 -14.455403 -10.218822 1.776567 40.048744 0.000009 0.000030 -25.029745 -0.000046 -0.000012 -17.407633 -0.000818 0.000003 0.000677 -12.428193 0.150860 -8.953124 -8.870982 -0.023271 0.063927 -9.061824 0.007732 0.041412 0.000017 0.000059 -0.000004 -11.747658 0.059978 -10.078857 -8.645813 -0.022655 0.022190 -8.419668 0.003808 0.028080 -0.000496 -0.000020 -0.000100 -13.509415 -0.033823 -10.900826 -9.799353 0.036016 -0.100106 -9.697510 -0.001994 -0.055666 0.000498 0.000015 0.000008 -13.800390 -0.086008 -12.045516 -10.316443 0.047419 -0.229377 -10.346979 -0.034559 -0.212286 -0.000041 0.000007 -0.000050 0.000000 0.000000 0.000000 0.000000 0.000000 0.000000 1.640274 -15.335009 11.432320 0.008757 -0.391451 5.361585 -5.327415 -13.408853 19.325737 -0.752772 0.502835 -18.795177 0.000000 0.000000 0.000000 0.000000 0.000000 0.000000 0.000000 0.000000 0.000000 8.765285 -0.815841 3.163187 0.316593 0.955696 16.365757 -3.345309 4.909774 20.308451 0.739742 -0.444550 -22.932783 0.000000 0.000000 0.000000 0.000000 0.000000 0.000000 0.000000 0.000000 0.000000 
0.518125 88.403557 3.296527 -1.160121 0.261684 -10.169809 3.488589 -0.689650 7.024740 1.371543 -0.528874 4.835592 -0.576645 -1.372111 2.725834 -1.232731 -0.511925 3.825882 -0.648535 -1.045050 4.750276 -0.835471 -1.467788 -3.299233 -0.605373 -0.881200 -18.666372 0.000000 0.000000 0.000000 90.709702 -0.118718 9.963433 64.934540 -30.139908 6.334697 -0.192095 14.204328 22.865377 6.915400 11.898206 -5.703818 10.538310 -1.835631 39.960186 -0.000006 0.000050 -25.550711 0.000015 0.000036 -17.629946 0.000018 0.000003 -0.000041 12.244037 0.077929 -9.729482 8.670012 -0.028156 -0.018114 8.621446 -0.003246 -0.015976 -0.000011 0.000057 -0.000030 11.720681 0.040827 -10.733047 8.148828 -0.020244 -0.008379 8.267440 0.000250 -0.010315 0.000026 0.000019 -0.000009 13.839748 -0.073966 -10.385564 9.273314 0.027832 0.046669 9.281686 -0.006709 0.031502 -0.000020 0.000891 0.000001 14.661551 -0.156533 -11.416502 10.094165 0.017714 0.334774 9.922272 -0.049909 0.276768 0.000233 0.000006 0.000012 0.000000 0.000000 0.000000 0.000000 0.000000 0.000000 -87.322533 -0.246650 6.890080 -75.015167 24.642591 -6.001352 -0.507458 -9.795503 41.989532 1.322835 -15.093230 -14.311938 -10.113317 1.760911 40.097038 0.000008 0.000030 -24.811369 -0.000040 -0.000013 -17.253798 -0.000860 0.000003 0.000748 -11.925996 0.149330 -8.563183 -8.675309 -0.022759 0.061674 -8.851804 0.007683 0.035379 0.000014 0.000031 -0.000004 -11.309248 0.059031 -9.808711 -8.486247 -0.023004 0.018294 -8.280291 0.003804 0.026355 -0.000584 -0.000018 -0.000097 -13.258943 -0.032006 -10.812015 -9.721553 0.035277 -0.097681 -9.629045 -0.002552 -0.052495 0.000658 0.000015 0.000008 -13.747913 -0.084691 -12.125546 -10.338519 0.044870 -0.226172 -10.385456 -0.037432 -0.204086 -0.000072 0.000006 -0.000050 0.000000 0.000000 0.000000 0.000000 0.000000 0.000000 1.533466 -15.513589 11.555909 0.010659 -0.377352 5.265259 -5.391364 -13.432294 19.326450 -0.752357 0.487329 -18.789730 0.000000 0.000000 0.000000 0.000000 0.000000 0.000000 0.000000 0.000000 0.000000 8.798436 -0.910170 3.148827 0.316900 0.960375 16.405478 -3.391197 4.689834 20.275621 0.738130 -0.458039 -22.945335 0.000000 0.000000 0.000000 0.000000 0.000000 0.000000 0.000000 0.000000 0.000000 
